<svg width="24" height="24" viewBox="0 0 24 24" fill="none" xmlns="http://www.w3.org/2000/svg">
<g id="Icon/Glyph/Box">
<path id="Vector" d="M12.54 10.67L12 10.94L11.46 10.67L3.46 6.66999L11.46 2.16999C11.612 2.08222 11.7845 2.03601 11.96 2.03601C12.1355 2.03601 12.308 2.08222 12.46 2.16999L20.46 6.66999L16.46 8.66999C16.435 8.6434 16.4042 8.62288 16.37 8.60999L12.37 6.60999C12.1369 6.51292 11.8757 6.50763 11.6389 6.59516C11.4021 6.6827 11.2071 6.85659 11.0932 7.08192C10.9792 7.30725 10.9548 7.56734 11.0247 7.80997C11.0946 8.0526 11.2537 8.2598 11.47 8.38999L14.24 9.77999L12.54 10.67ZM3 7.55999V16.56C3.00031 16.7372 3.04769 16.9111 3.1373 17.064C3.22691 17.2168 3.35553 17.3432 3.51 17.43L11.51 21.92V11.92L11.01 11.67L3 7.55999ZM21 7.55999L17 9.55999V14C17 14.2652 16.8946 14.5196 16.7071 14.7071C16.5196 14.8946 16.2652 15 16 15C15.7348 15 15.4804 14.8946 15.2929 14.7071C15.1054 14.5196 15 14.2652 15 14V10.56L12.5 11.81V21.81L20.5 17.32C20.6455 17.2362 20.7675 17.1172 20.8549 16.9739C20.9423 16.8306 20.9922 16.6676 21 16.5V7.49999C21.0053 7.50911 21.008 7.51945 21.008 7.52999C21.008 7.54052 21.0053 7.55086 21 7.55999Z" fill="#767D87"/>
</g>
</svg>
