<svg width="18" height="18" viewBox="0 0 18 18" fill="none" xmlns="http://www.w3.org/2000/svg">
<g id="Frame">
<path id="primary" d="M5.25 2.25V3.75M15.75 14.25L14.25 15.75V14.25H15.75ZM15 3H3C2.80109 3 2.61032 3.07902 2.46967 3.21967C2.32902 3.36032 2.25 3.55109 2.25 3.75V15C2.25 15.1989 2.32902 15.3897 2.46967 15.5303C2.61032 15.671 2.80109 15.75 3 15.75H14.25L15.75 14.25V3.75C15.75 3.55109 15.671 3.36032 15.5303 3.21967C15.3897 3.07902 15.1989 3 15 3V3ZM15.75 3.75V6.75H2.25V3.75C2.25 3.55109 2.32902 3.36032 2.46967 3.21967C2.61032 3.07902 2.80109 3 3 3H15C15.1989 3 15.3897 3.07902 15.5303 3.21967C15.671 3.36032 15.75 3.55109 15.75 3.75ZM12.75 2.25V3.75V2.25ZM9 2.25V3.75V2.25Z" stroke="#504178" stroke-width="1.5" stroke-linecap="round" stroke-linejoin="round"/>
</g>
</svg>
