<svg width="24" height="25" viewBox="0 0 24 25" fill="none" xmlns="http://www.w3.org/2000/svg">
<g id="Icon/Glyph/Dashboard">
<path id="Vector" d="M9 2.5H4C2.89543 2.5 2 3.39543 2 4.5V11.5C2 12.6046 2.89543 13.5 4 13.5H9C10.1046 13.5 11 12.6046 11 11.5V4.5C11 3.39543 10.1046 2.5 9 2.5Z" fill="#504178"/>
<path id="Vector_2" d="M20 2.5H15C13.8954 2.5 13 3.39543 13 4.5V7.5C13 8.60457 13.8954 9.5 15 9.5H20C21.1046 9.5 22 8.60457 22 7.5V4.5C22 3.39543 21.1046 2.5 20 2.5Z" fill="#504178"/>
<path id="Vector_3" d="M9 15.5H4C2.89543 15.5 2 16.3954 2 17.5V20.5C2 21.6046 2.89543 22.5 4 22.5H9C10.1046 22.5 11 21.6046 11 20.5V17.5C11 16.3954 10.1046 15.5 9 15.5Z" fill="#504178"/>
<path id="Vector_4" d="M20 11.5H15C13.8954 11.5 13 12.3954 13 13.5V20.5C13 21.6046 13.8954 22.5 15 22.5H20C21.1046 22.5 22 21.6046 22 20.5V13.5C22 12.3954 21.1046 11.5 20 11.5Z" fill="#504178"/>
</g>
</svg>
