<svg width="24" height="24" viewBox="0 0 24 24" fill="none" xmlns="http://www.w3.org/2000/svg">
<g id="Icon/Glyph/Folder">
<path id="Vector" d="M19 8H7C6.42011 8.00014 5.85269 8.16834 5.36641 8.48425C4.88013 8.80016 4.49582 9.25023 4.26 9.78L2 14.87V5C2 4.46957 2.21071 3.96086 2.58579 3.58579C2.96086 3.21071 3.46957 3 4 3H8C8.52086 3.00203 9.02142 3.20225 9.4 3.56L11.83 6H17C17.5304 6 18.0391 6.21071 18.4142 6.58579C18.7893 6.96086 19 7.46957 19 8ZM21.81 10.42C21.718 10.2908 21.5965 10.1853 21.4557 10.1122C21.3148 10.0392 21.1587 10.0007 21 10H7C6.80764 10.0004 6.61948 10.0563 6.45807 10.1609C6.29667 10.2656 6.16887 10.4146 6.09 10.59L2.09 19.59C2.02161 19.7421 1.99237 19.9089 2.00492 20.0753C2.01747 20.2416 2.07143 20.4021 2.16188 20.5423C2.25232 20.6824 2.37638 20.7977 2.52277 20.8776C2.66915 20.9576 2.83321 20.9997 3 21H18C18.2096 21.0005 18.4142 20.9352 18.5846 20.8132C18.7551 20.6911 18.8829 20.5186 18.95 20.32L21.95 11.32C21.9996 11.1696 22.0128 11.0096 21.9884 10.8531C21.9641 10.6967 21.9029 10.5482 21.81 10.42Z" fill="#767D87"/>
</g>
</svg>
