<svg width="40" height="39" viewBox="0 0 40 39" fill="none" xmlns="http://www.w3.org/2000/svg">
<g id="Frame">
<path id="primary" d="M16.4615 27.5769C16.4615 28.2159 16.272 28.8405 15.917 29.3718C15.562 29.9031 15.0574 30.3172 14.4671 30.5617C13.8768 30.8063 13.2272 30.8703 12.6004 30.7456C11.9737 30.6209 11.3981 30.3132 10.9462 29.8614C10.4944 29.4096 10.1867 28.8339 10.062 28.2072C9.93739 27.5805 10.0014 26.9309 10.2459 26.3405C10.4904 25.7502 10.9045 25.2456 11.4358 24.8906C11.9671 24.5356 12.5918 24.3461 13.2307 24.3461C14.0876 24.3461 14.9094 24.6865 15.5152 25.2924C16.1211 25.8983 16.4615 26.72 16.4615 27.5769ZM29.3846 24.3461C28.7456 24.3461 28.121 24.5356 27.5897 24.8906C27.0584 25.2456 26.6443 25.7502 26.3997 26.3405C26.1552 26.9309 26.0912 27.5805 26.2159 28.2072C26.3406 28.8339 26.6483 29.4096 27.1001 29.8614C27.5519 30.3132 28.1276 30.6209 28.7543 30.7456C29.381 30.8703 30.0306 30.8063 30.6209 30.5617C31.2113 30.3172 31.7159 29.9031 32.0709 29.3718C32.4259 28.8405 32.6154 28.2159 32.6154 27.5769C32.6154 26.72 32.275 25.8983 31.6691 25.2924C31.0632 24.6865 30.2414 24.3461 29.3846 24.3461Z" stroke="white" stroke-width="3" stroke-linecap="round" stroke-linejoin="round"/>
<path id="primary_2" d="M24.5385 9.80765V27.5769H16.4615C16.4615 26.72 16.1211 25.8983 15.5153 25.2924C14.9094 24.6865 14.0876 24.3461 13.2308 24.3461C12.3739 24.3461 11.5521 24.6865 10.9463 25.2924C10.3404 25.8983 9.99999 26.72 9.99999 27.5769H6.76922C6.3408 27.5769 5.92992 27.4067 5.62697 27.1037C5.32403 26.8008 5.15384 26.3899 5.15384 25.9615V9.80765C5.15384 9.37922 5.32403 8.96834 5.62697 8.6654C5.92992 8.36245 6.3408 8.19226 6.76922 8.19226H22.9231C23.3515 8.19226 23.7624 8.36245 24.0653 8.6654C24.3683 8.96834 24.5385 9.37922 24.5385 9.80765ZM33.9561 17.4807L31.4846 13.7653C31.3368 13.5408 31.1352 13.3568 30.8983 13.2299C30.6614 13.1029 30.3965 13.0371 30.1277 13.0384H24.5385V27.5769H26.1538C26.1538 26.72 26.4942 25.8983 27.1001 25.2924C27.706 24.6865 28.5278 24.3461 29.3846 24.3461C30.2415 24.3461 31.0632 24.6865 31.6691 25.2924C32.275 25.8983 32.6154 26.72 32.6154 27.5769H34.2308V18.3692C34.2283 18.0525 34.1328 17.7436 33.9561 17.4807Z" stroke="white" stroke-width="3" stroke-linecap="round" stroke-linejoin="round"/>
</g>
</svg>
