<svg width="24" height="20" viewBox="0 0 24 20" fill="none" xmlns="http://www.w3.org/2000/svg">
<g id="Icon/Glyph/Multi-user">
<path id="Vector" d="M7.2 9.99999C9.52125 9.99999 11.4 8.12124 11.4 5.79999C11.4 3.47874 9.52125 1.59999 7.2 1.59999C4.87875 1.59999 3 3.47874 3 5.79999C3 8.12124 4.87875 9.99999 7.2 9.99999ZM10.08 11.2H9.76875C8.98875 11.575 8.1225 11.8 7.2 11.8C6.2775 11.8 5.415 11.575 4.63125 11.2H4.32C1.935 11.2 0 13.135 0 15.52V16.6C0 17.5937 0.80625 18.4 1.8 18.4H12.6C13.5938 18.4 14.4 17.5937 14.4 16.6V15.52C14.4 13.135 12.465 11.2 10.08 11.2ZM18 9.99999C19.9875 9.99999 21.6 8.38749 21.6 6.39999C21.6 4.41249 19.9875 2.79999 18 2.79999C16.0125 2.79999 14.4 4.41249 14.4 6.39999C14.4 8.38749 16.0125 9.99999 18 9.99999ZM19.8 11.2H19.6575C19.1363 11.38 18.585 11.5 18 11.5C17.415 11.5 16.8638 11.38 16.3425 11.2H16.2C15.435 11.2 14.73 11.4212 14.1113 11.7775C15.0263 12.7637 15.6 14.0725 15.6 15.52V16.96C15.6 17.0425 15.5813 17.1212 15.5775 17.2H22.2C23.1938 17.2 24 16.3937 24 15.4C24 13.0787 22.1213 11.2 19.8 11.2V11.2Z" fill="#767D87"/>
</g>
</svg>
