<svg width="24" height="24" viewBox="0 0 24 24" fill="none" xmlns="http://www.w3.org/2000/svg">
<g id="Icon/Glyph/Report">
<path id="Vector" d="M20 2H4C3.46957 2 2.96086 2.21071 2.58579 2.58579C2.21071 2.96086 2 3.46957 2 4V20C2 20.5304 2.21071 21.0391 2.58579 21.4142C2.96086 21.7893 3.46957 22 4 22H20C20.5304 22 21.0391 21.7893 21.4142 21.4142C21.7893 21.0391 22 20.5304 22 20V4C22 3.46957 21.7893 2.96086 21.4142 2.58579C21.0391 2.21071 20.5304 2 20 2ZM9 17C9 17.2652 8.89464 17.5196 8.70711 17.7071C8.51957 17.8946 8.26522 18 8 18C7.73478 18 7.48043 17.8946 7.29289 17.7071C7.10536 17.5196 7 17.2652 7 17V15C7 14.7348 7.10536 14.4804 7.29289 14.2929C7.48043 14.1054 7.73478 14 8 14C8.26522 14 8.51957 14.1054 8.70711 14.2929C8.89464 14.4804 9 14.7348 9 15V17ZM13 17C13 17.2652 12.8946 17.5196 12.7071 17.7071C12.5196 17.8946 12.2652 18 12 18C11.7348 18 11.4804 17.8946 11.2929 17.7071C11.1054 17.5196 11 17.2652 11 17V11C11 10.7348 11.1054 10.4804 11.2929 10.2929C11.4804 10.1054 11.7348 10 12 10C12.2652 10 12.5196 10.1054 12.7071 10.2929C12.8946 10.4804 13 10.7348 13 11V17ZM17 17C17 17.2652 16.8946 17.5196 16.7071 17.7071C16.5196 17.8946 16.2652 18 16 18C15.7348 18 15.4804 17.8946 15.2929 17.7071C15.1054 17.5196 15 17.2652 15 17V7C15 6.73478 15.1054 6.48043 15.2929 6.29289C15.4804 6.10536 15.7348 6 16 6C16.2652 6 16.5196 6.10536 16.7071 6.29289C16.8946 6.48043 17 6.73478 17 7V17Z" fill="#767D87"/>
</g>
</svg>
