<svg width="24" height="24" viewBox="0 0 24 24" fill="none" xmlns="http://www.w3.org/2000/svg">
<g id="Icon/Glyph/Scredriver" clip-path="url(#clip0_314_43)">
<g id="Group">
<path id="Vector" fill-rule="evenodd" clip-rule="evenodd" d="M8.71644 17.6985L17.4944 8.92049C19.2374 9.82199 21.3104 9.65399 22.6424 8.32349C23.6684 7.29599 24.0149 5.82449 23.7059 4.40399L21.4424 6.66299L19.4264 7.05599L16.9874 4.64249L17.4074 2.56499L19.6499 0.352493C18.2294 0.0419935 16.7549 0.385493 15.7304 1.41149C14.3969 2.74349 14.2319 4.81649 15.1334 6.56099L6.35544 15.339C4.61094 14.439 2.53794 14.607 1.20594 15.936C0.179942 16.965 -0.166558 18.435 0.143942 19.8555L2.40594 17.598L4.42044 17.2035L6.86244 19.617L6.44094 21.6945L4.19844 23.9085C5.61744 24.2175 7.09194 23.8755 8.11794 22.848C9.44844 21.516 9.61494 19.443 8.71644 17.6985V17.6985Z" fill="#767D87"/>
<path id="Vector_2" fill-rule="evenodd" clip-rule="evenodd" d="M21.1604 18.501L18.4154 17.604L14.9114 14.1L14.0414 14.97L17.5454 18.471L18.5009 21.279L23.1014 24.0285L23.9699 23.16L21.1604 18.501V18.501Z" fill="#767D87"/>
<path id="Vector_3" fill-rule="evenodd" clip-rule="evenodd" d="M10.9155 7.66049L3.71697 0.43499C3.11247 -0.17101 2.05047 -0.0960099 1.34997 0.61199L0.550472 1.40999C-0.150028 2.11799 -0.229528 3.17849 0.377972 3.78749L7.57347 11.013L10.9155 7.66049V7.66049Z" fill="#767D87"/>
</g>
</g>
<defs>
<clipPath id="clip0_314_43">
<rect width="24" height="24" fill="white"/>
</clipPath>
</defs>
</svg>
