<svg width="24" height="24" viewBox="0 0 24 24" fill="none" xmlns="http://www.w3.org/2000/svg">
<g id="Icon/Glyph/Track">
<path id="Vector" d="M21.89 11.55L20.17 8.1C20.003 7.76866 19.7472 7.49029 19.4311 7.29603C19.115 7.10176 18.751 6.99927 18.38 7H17V6C17 5.46957 16.7893 4.96086 16.4142 4.58579C16.0391 4.21071 15.5304 4 15 4H4C3.46957 4 2.96086 4.21071 2.58579 4.58579C2.21071 4.96086 2 5.46957 2 6V16C2 16.5304 2.21071 17.0391 2.58579 17.4142C2.96086 17.7893 3.46957 18 4 18H5.18C5.3902 18.5792 5.77363 19.0795 6.27817 19.4332C6.7827 19.7868 7.38388 19.9765 8 19.9765C8.61612 19.9765 9.2173 19.7868 9.72184 19.4332C10.2264 19.0795 10.6098 18.5792 10.82 18H13.18C13.3902 18.5792 13.7736 19.0795 14.2782 19.4332C14.7827 19.7868 15.3839 19.9765 16 19.9765C16.6161 19.9765 17.2173 19.7868 17.7218 19.4332C18.2264 19.0795 18.6098 18.5792 18.82 18H20C20.5304 18 21.0391 17.7893 21.4142 17.4142C21.7893 17.0391 22 16.5304 22 16V12C21.9991 11.8435 21.9614 11.6893 21.89 11.55ZM8 18C7.80222 18 7.60888 17.9414 7.44443 17.8315C7.27998 17.7216 7.15181 17.5654 7.07612 17.3827C7.00043 17.2 6.98063 16.9989 7.01921 16.8049C7.0578 16.6109 7.15304 16.4327 7.29289 16.2929C7.43275 16.153 7.61093 16.0578 7.80491 16.0192C7.99889 15.9806 8.19996 16.0004 8.38268 16.0761C8.56541 16.1518 8.72159 16.28 8.83147 16.4444C8.94135 16.6089 9 16.8022 9 17C9 17.2652 8.89464 17.5196 8.70711 17.7071C8.51957 17.8946 8.26522 18 8 18V18ZM16 18C15.8022 18 15.6089 17.9414 15.4444 17.8315C15.28 17.7216 15.1518 17.5654 15.0761 17.3827C15.0004 17.2 14.9806 16.9989 15.0192 16.8049C15.0578 16.6109 15.153 16.4327 15.2929 16.2929C15.4327 16.153 15.6109 16.0578 15.8049 16.0192C15.9989 15.9806 16.2 16.0004 16.3827 16.0761C16.5654 16.1518 16.7216 16.28 16.8315 16.4444C16.9414 16.6089 17 16.8022 17 17C17 17.2652 16.8946 17.5196 16.7071 17.7071C16.5196 17.8946 16.2652 18 16 18ZM20 16H18.83C18.83 16 18.83 15.95 18.83 15.92C18.7794 15.8005 18.7226 15.6837 18.66 15.57L18.55 15.36C18.4511 15.2147 18.3408 15.0776 18.22 14.95C18.1818 14.9018 18.1382 14.8582 18.09 14.82C17.9624 14.6992 17.8253 14.5889 17.68 14.49L17.47 14.38L17.12 14.21H17.04V9H18.43L20 12.24V16Z" fill="#767D87"/>
</g>
</svg>
